<svg viewBox="0 0 520 300" xmlns="http://www.w3.org/2000/svg" font-family="sans-serif" font-size="13">
<defs>
  <marker id="arr" markerWidth="10" markerHeight="7" refX="9" refY="3.5" orient="auto">
    <polygon points="0 0, 10 3.5, 0 7" fill="#555"/>
  </marker>
  <marker id="arrb" markerWidth="10" markerHeight="7" refX="9" refY="3.5" orient="auto">
    <polygon points="0 0, 10 3.5, 0 7" fill="#1565C0"/>
  </marker>
</defs>
<text x="160" y="22" text-anchor="middle" font-size="14" font-weight="bold" fill="#1565C0">Basistabelle</text>
<text x="385" y="22" text-anchor="middle" font-size="14" font-weight="bold" fill="#388E3C">LSI</text>
<rect x="15" y="30" width="290" height="170" rx="5" fill="#E3F2FD" stroke="#1565C0" stroke-width="2"/>
<rect x="25" y="40" width="88" height="28" rx="5" fill="#1565C0" stroke="#1565C0" stroke-width="1.5"/>
<text x="69" y="59" text-anchor="middle" font-size="11" font-weight="bold" fill="white">PK (UserId)</text>
<rect x="115" y="40" width="88" height="28" rx="5" fill="#1565C0" stroke="#1565C0" stroke-width="1.5"/>
<text x="159" y="59" text-anchor="middle" font-size="11" font-weight="bold" fill="white">SK (OrderDate)</text>
<rect x="205" y="40" width="88" height="28" rx="5" fill="#1565C0" stroke="#1565C0" stroke-width="1.5"/>
<text x="249" y="59" text-anchor="middle" font-size="11" font-weight="bold" fill="white">Status</text>
<text x="69" y="93" text-anchor="middle" font-size="11" font-weight="normal" fill="#212121">U-1001</text>
<text x="159" y="93" text-anchor="middle" font-size="11" font-weight="normal" fill="#212121">2024-01-05</text>
<text x="249" y="93" text-anchor="middle" font-size="11" font-weight="normal" fill="#212121">SHIP</text>
<text x="69" y="128" text-anchor="middle" font-size="11" font-weight="normal" fill="#212121">U-1001</text>
<text x="159" y="128" text-anchor="middle" font-size="11" font-weight="normal" fill="#212121">2024-03-12</text>
<text x="249" y="128" text-anchor="middle" font-size="11" font-weight="normal" fill="#212121">DLVR</text>
<text x="69" y="163" text-anchor="middle" font-size="11" font-weight="normal" fill="#212121">U-1001</text>
<text x="159" y="163" text-anchor="middle" font-size="11" font-weight="normal" fill="#212121">2024-07-01</text>
<text x="249" y="163" text-anchor="middle" font-size="11" font-weight="normal" fill="#212121">PEND</text>
<text x="160" y="215" text-anchor="middle" font-size="12" font-weight="normal" fill="#1565C0">Sort Key: OrderDate</text>
<rect x="250" y="30" width="250" height="170" rx="5" fill="#E8F5E9" stroke="#388E3C" stroke-width="2"/>
<rect x="258" y="40" width="76" height="28" rx="5" fill="#388E3C" stroke="#388E3C" stroke-width="1.5"/>
<text x="296" y="59" text-anchor="middle" font-size="11" font-weight="bold" fill="white">PK (UserId)</text>
<rect x="336" y="40" width="76" height="28" rx="5" fill="#388E3C" stroke="#388E3C" stroke-width="1.5"/>
<text x="374" y="59" text-anchor="middle" font-size="11" font-weight="bold" fill="white">SK (Status)</text>
<rect x="414" y="40" width="76" height="28" rx="5" fill="#388E3C" stroke="#388E3C" stroke-width="1.5"/>
<text x="452" y="59" text-anchor="middle" font-size="11" font-weight="bold" fill="white">OrderDate</text>
<text x="296" y="93" text-anchor="middle" font-size="11" font-weight="normal" fill="#212121">U-1001</text>
<text x="374" y="93" text-anchor="middle" font-size="11" font-weight="normal" fill="#212121">DLVR</text>
<text x="452" y="93" text-anchor="middle" font-size="11" font-weight="normal" fill="#212121">2024-03-12</text>
<text x="296" y="128" text-anchor="middle" font-size="11" font-weight="normal" fill="#212121">U-1001</text>
<text x="374" y="128" text-anchor="middle" font-size="11" font-weight="normal" fill="#212121">PEND</text>
<text x="452" y="128" text-anchor="middle" font-size="11" font-weight="normal" fill="#212121">2024-07-01</text>
<text x="296" y="163" text-anchor="middle" font-size="11" font-weight="normal" fill="#212121">U-1001</text>
<text x="374" y="163" text-anchor="middle" font-size="11" font-weight="normal" fill="#212121">SHIP</text>
<text x="452" y="163" text-anchor="middle" font-size="11" font-weight="normal" fill="#212121">2024-01-05</text>
<text x="375" y="215" text-anchor="middle" font-size="12" font-weight="normal" fill="#388E3C">Sort Key: Status</text>
<line x1="25" y1="248" x2="25" y2="270" stroke="#1565C0" stroke-width="1.5"/>
<line x1="258" y1="248" x2="258" y2="270" stroke="#1565C0" stroke-width="1.5"/>
<line x1="25" y1="270" x2="258" y2="270" stroke="#1565C0" stroke-width="1.5"/>
<text x="140" y="288" text-anchor="middle" font-size="12" font-weight="bold" fill="#1565C0">gleicher Partition Key</text>
</svg>