<svg viewBox="0 0 520 245" xmlns="http://www.w3.org/2000/svg" font-family="sans-serif" font-size="13">
<defs>
  <marker id="arr" markerWidth="10" markerHeight="7" refX="9" refY="3.5" orient="auto">
    <polygon points="0 0, 10 3.5, 0 7" fill="#555"/>
  </marker>
  <marker id="arrb" markerWidth="10" markerHeight="7" refX="9" refY="3.5" orient="auto">
    <polygon points="0 0, 10 3.5, 0 7" fill="#1565C0"/>
  </marker>
</defs>
<text x="140" y="22" text-anchor="middle" font-size="14" font-weight="bold" fill="#1565C0">Basistabelle</text>
<text x="390" y="22" text-anchor="middle" font-size="14" font-weight="bold" fill="#7B1FA2">GSI: StatusIndex</text>
<rect x="15" y="30" width="260" height="185" rx="5" fill="#E3F2FD" stroke="#1565C0" stroke-width="2"/>
<rect x="25" y="40" width="78" height="28" rx="5" fill="#1565C0" stroke="#1565C0" stroke-width="1.5"/>
<text x="64" y="59" text-anchor="middle" font-size="11" font-weight="bold" fill="white">PK</text>
<rect x="105" y="40" width="78" height="28" rx="5" fill="#1565C0" stroke="#1565C0" stroke-width="1.5"/>
<text x="144" y="59" text-anchor="middle" font-size="11" font-weight="bold" fill="white">SK</text>
<rect x="185" y="40" width="78" height="28" rx="5" fill="#1565C0" stroke="#1565C0" stroke-width="1.5"/>
<text x="224" y="59" text-anchor="middle" font-size="11" font-weight="bold" fill="white">Status</text>
<text x="64" y="92" text-anchor="middle" font-size="11" font-weight="normal" fill="#212121">U-1001</text>
<text x="144" y="92" text-anchor="middle" font-size="11" font-weight="normal" fill="#212121">O-001</text>
<text x="224" y="92" text-anchor="middle" font-size="11" font-weight="normal" fill="#212121">SHIP</text>
<text x="64" y="125" text-anchor="middle" font-size="11" font-weight="normal" fill="#212121">U-1002</text>
<text x="144" y="125" text-anchor="middle" font-size="11" font-weight="normal" fill="#212121">O-002</text>
<text x="224" y="125" text-anchor="middle" font-size="11" font-weight="normal" fill="#212121">DLVR</text>
<text x="64" y="158" text-anchor="middle" font-size="11" font-weight="normal" fill="#212121">U-1003</text>
<text x="144" y="158" text-anchor="middle" font-size="11" font-weight="normal" fill="#212121">O-003</text>
<text x="224" y="158" text-anchor="middle" font-size="11" font-weight="normal" fill="#212121">PEND</text>
<text x="64" y="191" text-anchor="middle" font-size="11" font-weight="normal" fill="#212121">U-1001</text>
<text x="144" y="191" text-anchor="middle" font-size="11" font-weight="normal" fill="#212121">O-004</text>
<text x="224" y="191" text-anchor="middle" font-size="11" font-weight="normal" fill="#212121">DLVR</text>
<rect x="280" y="30" width="230" height="185" rx="5" fill="#F3E5F5" stroke="#7B1FA2" stroke-width="2"/>
<rect x="288" y="40" width="103" height="28" rx="5" fill="#7B1FA2" stroke="#7B1FA2" stroke-width="1.5"/>
<text x="339" y="59" text-anchor="middle" font-size="11" font-weight="bold" fill="white">PK: Status</text>
<rect x="393" y="40" width="103" height="28" rx="5" fill="#7B1FA2" stroke="#7B1FA2" stroke-width="1.5"/>
<text x="444" y="59" text-anchor="middle" font-size="11" font-weight="bold" fill="white">SK: UserId</text>
<text x="339" y="92" text-anchor="middle" font-size="11" font-weight="normal" fill="#212121">DLVR</text>
<text x="444" y="92" text-anchor="middle" font-size="11" font-weight="normal" fill="#212121">U-1001</text>
<text x="339" y="125" text-anchor="middle" font-size="11" font-weight="normal" fill="#212121">DLVR</text>
<text x="444" y="125" text-anchor="middle" font-size="11" font-weight="normal" fill="#212121">U-1002</text>
<text x="339" y="158" text-anchor="middle" font-size="11" font-weight="normal" fill="#212121">PEND</text>
<text x="444" y="158" text-anchor="middle" font-size="11" font-weight="normal" fill="#212121">U-1003</text>
<text x="339" y="191" text-anchor="middle" font-size="11" font-weight="normal" fill="#212121">SHIP</text>
<text x="444" y="191" text-anchor="middle" font-size="11" font-weight="normal" fill="#212121">U-1001</text>
<line x1="276" y1="123" x2="279" y2="123" stroke="#555" stroke-width="2" marker-end="url(#arr)"/>
<text x="260" y="228" text-anchor="middle" font-size="12" font-weight="bold" fill="#7B1FA2">völlig anderer PK + SK</text>
</svg>