<svg viewBox="0 0 520 295" xmlns="http://www.w3.org/2000/svg" font-family="sans-serif" font-size="13">
<defs>
  <marker id="arr" markerWidth="10" markerHeight="7" refX="9" refY="3.5" orient="auto">
    <polygon points="0 0, 10 3.5, 0 7" fill="#555"/>
  </marker>
  <marker id="arrb" markerWidth="10" markerHeight="7" refX="9" refY="3.5" orient="auto">
    <polygon points="0 0, 10 3.5, 0 7" fill="#1565C0"/>
  </marker>
</defs>
<text x="260" y="22" text-anchor="middle" font-size="14" font-weight="bold" fill="#1565C0">Entitäten & Beziehungen</text>
<rect x="40" y="60" width="110" height="50" rx="5" fill="#E3F2FD" stroke="#1565C0" stroke-width="2"/>
<text x="95" y="90" text-anchor="middle" font-size="13" font-weight="bold" fill="#1565C0">USER</text>
<rect x="200" y="60" width="110" height="50" rx="5" fill="#E8F5E9" stroke="#2E7D32" stroke-width="2"/>
<text x="255" y="90" text-anchor="middle" font-size="13" font-weight="bold" fill="#2E7D32">ORDER</text>
<rect x="200" y="180" width="110" height="50" rx="5" fill="#FFF3E0" stroke="#E65100" stroke-width="2"/>
<text x="255" y="210" text-anchor="middle" font-size="13" font-weight="bold" fill="#E65100">ORDER_ITEM</text>
<rect x="360" y="180" width="110" height="50" rx="5" fill="#F3E5F5" stroke="#7B1FA2" stroke-width="2"/>
<text x="415" y="210" text-anchor="middle" font-size="13" font-weight="bold" fill="#7B1FA2">PRODUCT</text>
<line x1="150" y1="85" x2="199" y2="85" stroke="#555" stroke-width="2" marker-end="url(#arr)"/>
<text x="175" y="78" text-anchor="middle" font-size="11" font-weight="normal" fill="#555">1:n</text>
<line x1="255" y1="110" x2="255" y2="179" stroke="#555" stroke-width="2" marker-end="url(#arr)"/>
<text x="268" y="150" text-anchor="middle" font-size="11" font-weight="normal" fill="#555">1:n</text>
<line x1="311" y1="205" x2="359" y2="205" stroke="#555" stroke-width="2" marker-end="url(#arr)"/>
<text x="335" y="198" text-anchor="middle" font-size="11" font-weight="normal" fill="#555">n:1</text>
<text x="95" y="140" text-anchor="middle" font-size="10" font-weight="normal" fill="#555">PK: USER#123</text>
<text x="255" y="140" text-anchor="middle" font-size="10" font-weight="normal" fill="#555">PK: USER#123</text>
<text x="255" y="154" text-anchor="middle" font-size="10" font-weight="normal" fill="#555">SK: ORDER#456</text>
<text x="255" y="260" text-anchor="middle" font-size="10" font-weight="normal" fill="#555">PK: ORDER#456</text>
<text x="255" y="274" text-anchor="middle" font-size="10" font-weight="normal" fill="#555">SK: ITEM#001</text>
<text x="415" y="260" text-anchor="middle" font-size="10" font-weight="normal" fill="#555">PK: PRODUCT#P01</text>
</svg>