<svg viewBox="0 0 520 295" xmlns="http://www.w3.org/2000/svg" font-family="sans-serif" font-size="13">
<defs>
  <marker id="arr" markerWidth="10" markerHeight="7" refX="9" refY="3.5" orient="auto">
    <polygon points="0 0, 10 3.5, 0 7" fill="#555"/>
  </marker>
  <marker id="arrb" markerWidth="10" markerHeight="7" refX="9" refY="3.5" orient="auto">
    <polygon points="0 0, 10 3.5, 0 7" fill="#1565C0"/>
  </marker>
</defs>
<text x="260" y="22" text-anchor="middle" font-size="14" font-weight="bold" fill="#1565C0">Entitäten & Beziehungen</text>
<rect x="40" y="80" width="110" height="50" rx="5" fill="#E3F2FD" stroke="#1565C0" stroke-width="2"/>
<text x="95" y="110" text-anchor="middle" font-size="13" font-weight="bold" fill="#1565C0">USER</text>
<rect x="360" y="80" width="110" height="50" rx="5" fill="#E3F2FD" stroke="#1565C0" stroke-width="2"/>
<text x="415" y="110" text-anchor="middle" font-size="13" font-weight="bold" fill="#1565C0">USER</text>
<rect x="200" y="200" width="110" height="50" rx="5" fill="#E8F5E9" stroke="#2E7D32" stroke-width="2"/>
<text x="255" y="230" text-anchor="middle" font-size="13" font-weight="bold" fill="#2E7D32">POST</text>
<rect x="190" y="88" width="130" height="35" rx="5" fill="#FCE4EC" stroke="#C62828" stroke-width="1.5"/>
<text x="255" y="110" text-anchor="middle" font-size="12" font-weight="bold" fill="#C62828">FRIEND</text>
<line x1="150" y1="105" x2="189" y2="105" stroke="#555" stroke-width="2" marker-end="url(#arr)"/>
<line x1="320" y1="105" x2="361" y2="105" stroke="#555" stroke-width="2" marker-end="url(#arr)"/>
<line x1="95" y1="131" x2="230" y2="199" stroke="#555" stroke-width="2" marker-end="url(#arr)"/>
<text x="148" y="175" text-anchor="middle" font-size="11" font-weight="normal" fill="#555">1:n</text>
<text x="95" y="148" text-anchor="middle" font-size="10" font-weight="normal" fill="#555">PK: USER#Alice</text>
<text x="415" y="148" text-anchor="middle" font-size="10" font-weight="normal" fill="#555">PK: USER#Bob</text>
<text x="255" y="262" text-anchor="middle" font-size="10" font-weight="normal" fill="#555">PK: USER#Alice</text>
<text x="255" y="276" text-anchor="middle" font-size="10" font-weight="normal" fill="#555">SK: POST#2024-01</text>
<text x="255" y="135" text-anchor="middle" font-size="10" font-weight="normal" fill="#555">SK: FRIEND#Bob</text>
</svg>