<svg viewBox="0 0 520 300" xmlns="http://www.w3.org/2000/svg" font-family="sans-serif" font-size="12">
  <defs>
    <marker id="arr" markerWidth="10" markerHeight="7" refX="9" refY="3.5" orient="auto">
      <polygon points="0 0, 10 3.5, 0 7" fill="#555"/>
    </marker>
    <marker id="arrg" markerWidth="10" markerHeight="7" refX="9" refY="3.5" orient="auto">
      <polygon points="0 0, 10 3.5, 0 7" fill="#388E3C"/>
    </marker>
    <marker id="arro" markerWidth="10" markerHeight="7" refX="9" refY="3.5" orient="auto">
      <polygon points="0 0, 10 3.5, 0 7" fill="#E65100"/>
    </marker>
  </defs>

  <!-- Read request -->
  <rect x="10" y="125" width="55" height="35" rx="5" fill="#FFF9C4" stroke="#E65100" stroke-width="2"/>
  <text x="37" y="141" text-anchor="middle" font-size="11" font-weight="bold" fill="#E65100">Read</text>
  <text x="37" y="154" text-anchor="middle" font-size="9" fill="#555">Request</text>

  <!-- Arrow to Memtable -->
  <line x1="66" y1="143" x2="84" y2="143" stroke="#555" stroke-width="2" marker-end="url(#arr)"/>

  <!-- 1. Memtable -->
  <rect x="86" y="108" width="80" height="70" rx="5" fill="#E3F2FD" stroke="#1565C0" stroke-width="2"/>
  <text x="126" y="130" text-anchor="middle" font-size="11" font-weight="bold" fill="#1565C0">Memtable</text>
  <line x1="96" y1="136" x2="156" y2="136" stroke="#ddd" stroke-width="0.5"/>
  <text x="126" y="150" text-anchor="middle" font-size="9" fill="#555">In-Memory</text>
  <text x="126" y="163" text-anchor="middle" font-size="9" fill="#555">prüfen</text>
  <text x="100" y="190" text-anchor="middle" font-size="9" fill="#555">① zuerst</text>

  <!-- Arrow to Bloom Filter -->
  <text x="188" y="130" text-anchor="middle" font-size="9" fill="#555">miss?</text>
  <line x1="167" y1="143" x2="204" y2="143" stroke="#555" stroke-width="1.5" stroke-dasharray="4,3" marker-end="url(#arr)"/>

  <!-- 2. Bloom Filter -->
  <rect x="206" y="108" width="80" height="70" rx="5" fill="#F3E5F5" stroke="#7B1FA2" stroke-width="2"/>
  <text x="246" y="127" text-anchor="middle" font-size="10" font-weight="bold" fill="#7B1FA2">Bloom</text>
  <text x="246" y="140" text-anchor="middle" font-size="10" font-weight="bold" fill="#7B1FA2">Filter</text>
  <line x1="216" y1="145" x2="276" y2="145" stroke="#ddd" stroke-width="0.5"/>
  <text x="246" y="158" text-anchor="middle" font-size="9" fill="#555">prob.</text>
  <text x="246" y="171" text-anchor="middle" font-size="9" fill="#555">Struktur</text>
  <text x="246" y="190" text-anchor="middle" font-size="9" fill="#555">② schnell</text>

  <!-- Arrow to Key Cache -->
  <line x1="287" y1="143" x2="322" y2="143" stroke="#555" stroke-width="1.5" marker-end="url(#arr)"/>

  <!-- 3. Key Cache -->
  <rect x="324" y="108" width="80" height="70" rx="5" fill="#FFF3E0" stroke="#E65100" stroke-width="2"/>
  <text x="364" y="127" text-anchor="middle" font-size="10" font-weight="bold" fill="#E65100">Key</text>
  <text x="364" y="140" text-anchor="middle" font-size="10" font-weight="bold" fill="#E65100">Cache</text>
  <line x1="334" y1="145" x2="394" y2="145" stroke="#ddd" stroke-width="0.5"/>
  <text x="364" y="158" text-anchor="middle" font-size="9" fill="#555">Position</text>
  <text x="364" y="171" text-anchor="middle" font-size="9" fill="#555">in SSTable</text>
  <text x="364" y="190" text-anchor="middle" font-size="9" fill="#555">③ Optional</text>

  <!-- Arrow down to SSTables -->
  <line x1="364" y1="179" x2="364" y2="210" stroke="#555" stroke-width="1.5" marker-end="url(#arr)"/>

  <!-- SSTables -->
  <rect x="300" y="212" width="70" height="28" rx="4" fill="#E8F5E9" stroke="#388E3C" stroke-width="1.5"/>
  <text x="335" y="230" text-anchor="middle" font-size="10" font-weight="bold" fill="#388E3C">SSTable 1</text>

  <rect x="378" y="212" width="70" height="28" rx="4" fill="#E8F5E9" stroke="#388E3C" stroke-width="1.5"/>
  <text x="413" y="230" text-anchor="middle" font-size="10" font-weight="bold" fill="#388E3C">SSTable 2</text>

  <rect x="456" y="212" width="55" height="28" rx="4" fill="#E8F5E9" stroke="#388E3C" stroke-width="1.5"/>
  <text x="483" y="230" text-anchor="middle" font-size="10" font-weight="bold" fill="#388E3C">SST 3</text>

  <!-- Arrows SSTables to Merge -->
  <line x1="335" y1="240" x2="335" y2="260" stroke="#555" stroke-width="1.5" marker-end="url(#arr)"/>
  <line x1="413" y1="240" x2="390" y2="260" stroke="#555" stroke-width="1.5" marker-end="url(#arr)"/>
  <line x1="483" y1="240" x2="420" y2="260" stroke="#555" stroke-width="1.5" marker-end="url(#arr)"/>

  <!-- Merge -->
  <rect x="310" y="262" width="145" height="28" rx="4" fill="#FCE4EC" stroke="#C62828" stroke-width="2"/>
  <text x="382" y="280" text-anchor="middle" font-size="11" font-weight="bold" fill="#C62828">Merge + Timestamp</text>

  <!-- Result arrow -->
  <line x1="309" y1="275" x2="200" y2="275" stroke="#388E3C" stroke-width="2" marker-end="url(#arrg)"/>
  <line x1="126" y1="275" x2="126" y2="180" stroke="#388E3C" stroke-width="2" marker-end="url(#arrg)"/>
  <text x="240" y="270" font-size="9" fill="#388E3C">neueste Version</text>

  <!-- Bottom note -->
  <rect x="0" y="220" width="230" height="70" rx="5" fill="#F9F9F9" stroke="#CCC" stroke-width="1"/>
  <text x="150" y="237" text-anchor="middle" font-size="11" font-weight="bold" fill="#333">Read-Optimierungen</text>
  <text x="10" y="253" font-size="10" fill="#7B1FA2">● Bloom Filter: schließt SSTables aus (keine FN)</text>
  <text x="10" y="267" font-size="10" fill="#E65100">● Key Cache: vermeidet Index-Scan in SSTable</text>
</svg>
