<svg viewBox="0 0 520 290" xmlns="http://www.w3.org/2000/svg" font-family="sans-serif" font-size="13">
<defs>
  <marker id="arr" markerWidth="10" markerHeight="7" refX="9" refY="3.5" orient="auto">
    <polygon points="0 0, 10 3.5, 0 7" fill="#555"/>
  </marker>
  <marker id="arrb" markerWidth="10" markerHeight="7" refX="9" refY="3.5" orient="auto">
    <polygon points="0 0, 10 3.5, 0 7" fill="#1565C0"/>
  </marker>
</defs>
<text x="90" y="22" text-anchor="middle" font-size="13" font-weight="bold" fill="#1565C0">Items</text>
<rect x="15" y="42" width="140" height="32" rx="5" fill="#E3F2FD" stroke="#1565C0" stroke-width="1.5"/>
<text x="85" y="66" text-anchor="middle" font-size="12" font-weight="normal" fill="#212121">UserId: "U-1001"</text>
<rect x="15" y="97" width="140" height="32" rx="5" fill="#E3F2FD" stroke="#1565C0" stroke-width="1.5"/>
<text x="85" y="121" text-anchor="middle" font-size="12" font-weight="normal" fill="#212121">UserId: "U-1002"</text>
<rect x="15" y="152" width="140" height="32" rx="5" fill="#E3F2FD" stroke="#1565C0" stroke-width="1.5"/>
<text x="85" y="176" text-anchor="middle" font-size="12" font-weight="normal" fill="#212121">UserId: "U-1003"</text>
<rect x="15" y="207" width="140" height="32" rx="5" fill="#E3F2FD" stroke="#1565C0" stroke-width="1.5"/>
<text x="85" y="231" text-anchor="middle" font-size="12" font-weight="normal" fill="#212121">UserId: "U-1004"</text>
<rect x="210" y="100" width="110" height="80" rx="5" fill="#FFF3E0" stroke="#E65100" stroke-width="2"/>
<text x="265" y="133" text-anchor="middle" font-size="14" font-weight="bold" fill="#E65100">Hash</text>
<text x="265" y="153" text-anchor="middle" font-size="14" font-weight="bold" fill="#E65100">Funktion</text>
<line x1="155" y1="60" x2="209" y2="140" stroke="#555" stroke-width="2" marker-end="url(#arr)"/>
<line x1="155" y1="115" x2="209" y2="140" stroke="#555" stroke-width="2" marker-end="url(#arr)"/>
<line x1="155" y1="170" x2="209" y2="140" stroke="#555" stroke-width="2" marker-end="url(#arr)"/>
<line x1="155" y1="225" x2="209" y2="140" stroke="#555" stroke-width="2" marker-end="url(#arr)"/>
<rect x="370" y="30" width="140" height="45" rx="5" fill="#E8F5E9" stroke="#388E3C" stroke-width="2"/>
<text x="440" y="58" text-anchor="middle" font-size="13" font-weight="bold" fill="#388E3C">Partition A</text>
<rect x="370" y="115" width="140" height="45" rx="5" fill="#E3F2FD" stroke="#1565C0" stroke-width="2"/>
<text x="440" y="143" text-anchor="middle" font-size="13" font-weight="bold" fill="#1565C0">Partition B</text>
<rect x="370" y="200" width="140" height="45" rx="5" fill="#FCE4EC" stroke="#C62828" stroke-width="2"/>
<text x="440" y="228" text-anchor="middle" font-size="13" font-weight="bold" fill="#C62828">Partition C</text>
<line x1="321" y1="140" x2="369" y2="55" stroke="#555" stroke-width="2" marker-end="url(#arr)"/>
<line x1="321" y1="140" x2="369" y2="140" stroke="#555" stroke-width="2" marker-end="url(#arr)"/>
<line x1="321" y1="140" x2="369" y2="225" stroke="#555" stroke-width="2" marker-end="url(#arr)"/>
</svg>