<svg viewBox="0 0 520 310" xmlns="http://www.w3.org/2000/svg" font-family="sans-serif" font-size="13">
<defs>
  <marker id="arr" markerWidth="10" markerHeight="7" refX="9" refY="3.5" orient="auto">
    <polygon points="0 0, 10 3.5, 0 7" fill="#555"/>
  </marker>
  <marker id="arrb" markerWidth="10" markerHeight="7" refX="9" refY="3.5" orient="auto">
    <polygon points="0 0, 10 3.5, 0 7" fill="#1565C0"/>
  </marker>
</defs>
<text x="260" y="22" text-anchor="middle" font-size="14" font-weight="bold" fill="#1565C0">Tabelle: Orders (Composite Key)</text>
<rect x="15" y="35" width="490" height="32" rx="5" fill="#1565C0" stroke="#1565C0" stroke-width="1.5"/>
<text x="100" y="56" text-anchor="middle" font-size="13" font-weight="bold" fill="white">Partition Key (PK)</text>
<text x="260" y="56" text-anchor="middle" font-size="13" font-weight="bold" fill="white">Sort Key (SK)</text>
<text x="420" y="56" text-anchor="middle" font-size="13" font-weight="bold" fill="white">Attribute</text>
<line x1="195" y1="35" x2="195" y2="310" stroke="white" stroke-width="1"/>
<line x1="355" y1="35" x2="355" y2="310" stroke="white" stroke-width="1"/>
<rect x="15" y="67" width="490" height="45" rx="2" fill="#E3F2FD" stroke="#BBDEFB" stroke-width="1.5"/>
<text x="100" y="92" text-anchor="middle" font-size="12" font-weight="bold" fill="#1565C0">U-1001</text>
<text x="270" y="92" text-anchor="middle" font-size="12" font-weight="normal" fill="#212121">ORDER#2024-001</text>
<text x="425" y="92" text-anchor="middle" font-size="12" font-weight="normal" fill="#212121">Total: 49.99</text>
<line x1="195" y1="67" x2="195" y2="112" stroke="#BBDEFB" stroke-width="1.5"/>
<line x1="355" y1="67" x2="355" y2="112" stroke="#BBDEFB" stroke-width="1.5"/>
<rect x="15" y="112" width="490" height="45" rx="2" fill="#E3F2FD" stroke="#BBDEFB" stroke-width="1.5"/>
<text x="100" y="137" text-anchor="middle" font-size="12" font-weight="bold" fill="#1565C0">U-1001</text>
<text x="270" y="137" text-anchor="middle" font-size="12" font-weight="normal" fill="#212121">ORDER#2024-002</text>
<text x="425" y="137" text-anchor="middle" font-size="12" font-weight="normal" fill="#212121">Total: 89.50</text>
<line x1="195" y1="112" x2="195" y2="157" stroke="#BBDEFB" stroke-width="1.5"/>
<line x1="355" y1="112" x2="355" y2="157" stroke="#BBDEFB" stroke-width="1.5"/>
<rect x="15" y="157" width="490" height="45" rx="2" fill="#E3F2FD" stroke="#BBDEFB" stroke-width="1.5"/>
<text x="100" y="182" text-anchor="middle" font-size="12" font-weight="bold" fill="#1565C0">U-1001</text>
<text x="270" y="182" text-anchor="middle" font-size="12" font-weight="normal" fill="#212121">ORDER#2024-003</text>
<text x="425" y="182" text-anchor="middle" font-size="12" font-weight="normal" fill="#212121">Total: 12.00</text>
<line x1="195" y1="157" x2="195" y2="202" stroke="#BBDEFB" stroke-width="1.5"/>
<line x1="355" y1="157" x2="355" y2="202" stroke="#BBDEFB" stroke-width="1.5"/>
<rect x="15" y="202" width="490" height="45" rx="2" fill="#FFFFFF" stroke="#BBDEFB" stroke-width="1.5"/>
<text x="100" y="227" text-anchor="middle" font-size="12" font-weight="bold" fill="#1565C0">U-1002</text>
<text x="270" y="227" text-anchor="middle" font-size="12" font-weight="normal" fill="#212121">ORDER#2024-010</text>
<text x="425" y="227" text-anchor="middle" font-size="12" font-weight="normal" fill="#212121">Total: 199.00</text>
<line x1="195" y1="202" x2="195" y2="247" stroke="#BBDEFB" stroke-width="1.5"/>
<line x1="355" y1="202" x2="355" y2="247" stroke="#BBDEFB" stroke-width="1.5"/>
<rect x="15" y="247" width="490" height="45" rx="2" fill="#FFFFFF" stroke="#BBDEFB" stroke-width="1.5"/>
<text x="100" y="272" text-anchor="middle" font-size="12" font-weight="bold" fill="#1565C0">U-1002</text>
<text x="270" y="272" text-anchor="middle" font-size="12" font-weight="normal" fill="#212121">ORDER#2024-011</text>
<text x="425" y="272" text-anchor="middle" font-size="12" font-weight="normal" fill="#212121">Total: 9.99</text>
<line x1="195" y1="247" x2="195" y2="292" stroke="#BBDEFB" stroke-width="1.5"/>
<line x1="355" y1="247" x2="355" y2="292" stroke="#BBDEFB" stroke-width="1.5"/>
<rect x="200" y="80" width="135" height="120" rx="3" fill="none" stroke="#FF6F00" stroke-width="2"/>
<text x="268" y="75" text-anchor="middle" font-size="12" font-weight="bold" fill="#FF6F00">Range Query</text>
</svg>