<svg viewBox="0 0 520 275" xmlns="http://www.w3.org/2000/svg" font-family="sans-serif" font-size="12">
<defs>
  <marker id="arr" markerWidth="10" markerHeight="7" refX="9" refY="3.5" orient="auto">
    <polygon points="0 0, 10 3.5, 0 7" fill="#555"/>
  </marker>
</defs>
<text x="260" y="22" text-anchor="middle" font-size="15" font-weight="bold" fill="#1565C0">GSI: Sekundäre Zugriffsmuster</text>
<!-- LEFT: Basistabelle -->
<text x="120" y="40" text-anchor="middle" font-size="12" font-weight="bold" fill="#455A64">Basistabelle</text>
<rect x="10" y="46" width="230" height="185" rx="5" fill="#FAFAFA" stroke="#888" stroke-width="1.5"/>
<!-- Header -->
<rect x="10" y="46" width="230" height="22" rx="5" fill="#455A64"/>
<text x="52" y="61" text-anchor="middle" font-size="9" fill="white" font-weight="bold">PK</text>
<text x="118" y="61" text-anchor="middle" font-size="9" fill="white" font-weight="bold">SK</text>
<text x="188" y="61" text-anchor="middle" font-size="9" fill="#FFF9C4" font-weight="bold">GSI1PK</text>
<line x1="88" y1="46" x2="88" y2="231" stroke="#CCC" stroke-width="1"/>
<line x1="150" y1="46" x2="150" y2="231" stroke="#CCC" stroke-width="1"/>
<!-- Row 1 -->
<rect x="10" y="68" width="230" height="27" fill="#E3F2FD"/>
<text x="49" y="86" text-anchor="middle" font-size="8" fill="#1565C0">USER#Alice</text>
<text x="119" y="86" text-anchor="middle" font-size="8" fill="#1565C0">ORDER#O-001</text>
<text x="190" y="82" text-anchor="middle" font-size="8" fill="#E65100" font-weight="bold">STATUS#PENDING</text>
<text x="190" y="92" text-anchor="middle" font-size="8" fill="#E65100">2024-01-15</text>
<!-- Row 2 -->
<rect x="10" y="95" width="230" height="27" fill="#E3F2FD"/>
<text x="49" y="113" text-anchor="middle" font-size="8" fill="#1565C0">USER#Alice</text>
<text x="119" y="113" text-anchor="middle" font-size="8" fill="#1565C0">ORDER#O-002</text>
<text x="190" y="109" text-anchor="middle" font-size="8" fill="#2E7D32" font-weight="bold">STATUS#SHIPPED</text>
<text x="190" y="119" text-anchor="middle" font-size="8" fill="#2E7D32">2024-01-14</text>
<!-- Row 3 -->
<rect x="10" y="122" width="230" height="27" fill="#E8F5E9"/>
<text x="49" y="140" text-anchor="middle" font-size="8" fill="#1565C0">USER#Bob</text>
<text x="119" y="140" text-anchor="middle" font-size="8" fill="#1565C0">ORDER#O-003</text>
<text x="190" y="136" text-anchor="middle" font-size="8" fill="#E65100" font-weight="bold">STATUS#PENDING</text>
<text x="190" y="146" text-anchor="middle" font-size="8" fill="#E65100">2024-01-16</text>
<!-- Row 4 -->
<rect x="10" y="149" width="230" height="27" fill="#E8F5E9"/>
<text x="49" y="167" text-anchor="middle" font-size="8" fill="#1565C0">USER#Bob</text>
<text x="119" y="167" text-anchor="middle" font-size="8" fill="#1565C0">ORDER#O-004</text>
<text x="190" y="163" text-anchor="middle" font-size="8" fill="#2E7D32" font-weight="bold">STATUS#SHIPPED</text>
<text x="190" y="173" text-anchor="middle" font-size="8" fill="#2E7D32">2024-01-13</text>
<text x="120" y="208" text-anchor="middle" font-size="11" fill="#AAA">...</text>
<!-- Query on base table -->
<rect x="10" y="220" width="230" height="22" rx="3" fill="#FFEBEE" stroke="#E53935" stroke-width="1"/>
<text x="125" y="235" text-anchor="middle" font-size="10" fill="#E53935">Scan nötig für "alle PENDING"</text>
<!-- Arrow -->
<line x1="260" y1="140" x2="290" y2="140" stroke="#555" stroke-width="2" marker-end="url(#arr)"/>
<text x="275" y="132" text-anchor="middle" font-size="9" fill="#555" font-weight="bold">GSI</text>
<!-- RIGHT: GSI -->
<text x="400" y="40" text-anchor="middle" font-size="12" font-weight="bold" fill="#7B1FA2">GSI1 (nach Status sortiert)</text>
<rect x="292" y="46" width="218" height="185" rx="5" fill="#F3E5F5" stroke="#7B1FA2" stroke-width="2"/>
<!-- Header -->
<rect x="292" y="46" width="218" height="22" rx="5" fill="#7B1FA2"/>
<text x="356" y="61" text-anchor="middle" font-size="9" fill="white" font-weight="bold">GSI1PK (Status)</text>
<text x="456" y="61" text-anchor="middle" font-size="9" fill="white" font-weight="bold">PK, SK</text>
<line x1="410" y1="46" x2="410" y2="231" stroke="#CCC" stroke-width="1"/>
<!-- GSI Row 1 -->
<rect x="292" y="68" width="218" height="27" fill="#FFEBEE"/>
<text x="351" y="82" text-anchor="middle" font-size="8" fill="#E65100" font-weight="bold">STATUS#PENDING</text>
<text x="351" y="92" text-anchor="middle" font-size="8" fill="#E65100">2024-01-15</text>
<text x="455" y="82" text-anchor="middle" font-size="8" fill="#555">USER#Alice</text>
<text x="455" y="92" text-anchor="middle" font-size="8" fill="#555">ORDER#O-001</text>
<!-- GSI Row 2 -->
<rect x="292" y="95" width="218" height="27" fill="#FFEBEE"/>
<text x="351" y="109" text-anchor="middle" font-size="8" fill="#E65100" font-weight="bold">STATUS#PENDING</text>
<text x="351" y="119" text-anchor="middle" font-size="8" fill="#E65100">2024-01-16</text>
<text x="455" y="109" text-anchor="middle" font-size="8" fill="#555">USER#Bob</text>
<text x="455" y="119" text-anchor="middle" font-size="8" fill="#555">ORDER#O-003</text>
<!-- GSI Row 3 -->
<rect x="292" y="122" width="218" height="27" fill="#E8F5E9"/>
<text x="351" y="136" text-anchor="middle" font-size="8" fill="#2E7D32" font-weight="bold">STATUS#SHIPPED</text>
<text x="351" y="146" text-anchor="middle" font-size="8" fill="#2E7D32">2024-01-13</text>
<text x="455" y="136" text-anchor="middle" font-size="8" fill="#555">USER#Bob</text>
<text x="455" y="146" text-anchor="middle" font-size="8" fill="#555">ORDER#O-004</text>
<!-- GSI Row 4 -->
<rect x="292" y="149" width="218" height="27" fill="#E8F5E9"/>
<text x="351" y="163" text-anchor="middle" font-size="8" fill="#2E7D32" font-weight="bold">STATUS#SHIPPED</text>
<text x="351" y="173" text-anchor="middle" font-size="8" fill="#2E7D32">2024-01-14</text>
<text x="455" y="163" text-anchor="middle" font-size="8" fill="#555">USER#Alice</text>
<text x="455" y="173" text-anchor="middle" font-size="8" fill="#555">ORDER#O-002</text>
<text x="401" y="208" text-anchor="middle" font-size="11" fill="#AAA">...</text>
<!-- Query on GSI -->
<rect x="292" y="220" width="218" height="22" rx="3" fill="#E8F5E9" stroke="#2E7D32" stroke-width="1"/>
<text x="401" y="235" text-anchor="middle" font-size="10" fill="#2E7D32">"alle PENDING" → effizienter Query</text>
</svg>
